PathFileType	4	(X/Y/Z)	C:/Users/opensim2020/Desktop/walking_exp_matlab/subject03_walking10_straight_03.trc	
DataRate	CameraRate	NumFrames	NumMarkers	Units	OrigDataRate	OrigDataStartFrame	OrigNumFrames	
100.00	100.00	9	45	mm	100.00	2946	417	
Frame#	Time	LFHD			RFHD			LBHD			RBHD			C7			T10			CLAV			STRN			RBAK			LSHO			LUPA			LELB			LFRM			LWRA			LWRB			LFIN			RSHO			RUPA			RELB			RFRM			RWRA			RWRB			RFIN			LASI			RASI			LPSI			RPSI			LTHI			LKNE			LTIB			LANK			LHEE			LTOE			RTHI			RKNE			RTIB			RANK			RHEE			RTOE			*39			*40			*41			*42			*43			*44			
		X1	Y1	Z1	X2	Y2	Z2	X3	Y3	Z3	X4	Y4	Z4	X5	Y5	Z5	X6	Y6	Z6	X7	Y7	Z7	X8	Y8	Z8	X9	Y9	Z9	X10	Y10	Z10	X11	Y11	Z11	X12	Y12	Z12	X13	Y13	Z13	X14	Y14	Z14	X15	Y15	Z15	X16	Y16	Z16	X17	Y17	Z17	X18	Y18	Z18	X19	Y19	Z19	X20	Y20	Z20	X21	Y21	Z21	X22	Y22	Z22	X23	Y23	Z23	X24	Y24	Z24	X25	Y25	Z25	X26	Y26	Z26	X27	Y27	Z27	X28	Y28	Z28	X29	Y29	Z29	X30	Y30	Z30	X31	Y31	Z31	X32	Y32	Z32	X33	Y33	Z33	X34	Y34	Z34	X35	Y35	Z35	X36	Y36	Z36	X37	Y37	Z37	X38	Y38	Z38	X39	Y39	Z39	X40	Y40	Z40	X41	Y41	Z41	X42	Y42	Z42	X43	Y43	Z43	X44	Y44	Z44	X45	Y45	Z45	

209	2.080	1397.33154	218.33580	1633.29175	1530.47192	215.67326	1631.05054	1397.25256	97.30188	1573.59302	1528.30957	99.11856	1571.50171	1450.70422	79.75170	1420.33630	1450.79028	46.75016	1107.89978	1445.27710	203.87997	1346.19275	1431.76599	245.07475	1180.67822	1548.27234	33.42610	1243.79480	1292.20374	156.32339	1385.79980	1219.64270	156.11642	1190.32410	1205.36707	173.11249	1068.09290	1202.74548	216.83508	945.24786	1231.39355	255.04231	832.17102	1182.41687	228.39070	833.14172	1191.63599	257.12161	753.58655	1607.46497	165.93474	1365.47791	1676.11780	179.34026	1142.22949	1686.31970	201.24901	1031.09680	1686.10950	222.68294	895.49323	1647.27661	251.59512	801.13251	1694.55847	225.77051	795.58679	1683.51025	250.29416	725.53693	1316.78027	196.48210	938.81750	1552.57043	227.47708	947.13379	1386.09607	41.82782	961.52612	1532.87305	61.88182	979.22894	1262.76892	154.67632	635.92004	1272.52502	182.85799	458.14420	1293.25354	31.24523	334.55490	1350.13281	-115.30605	194.80492	1397.34644	-161.36456	199.66011	1353.24377	-46.33715	61.40587	1595.86108	186.01189	653.95288	1555.35718	208.39207	474.94223	1557.46082	175.26781	287.45331	1503.50500	161.58162	72.94269	1454.42004	116.36659	41.08931	1481.91602	303.65988	36.97276																		 
210	2.090	1397.38684	225.39427	1633.70557	1530.83655	222.80264	1631.06055	1397.69678	104.23141	1574.13757	1528.80347	106.16309	1571.84875	1451.31116	86.14922	1420.65881	1451.65186	53.12034	1108.16125	1445.48657	210.37155	1346.51794	1432.05493	251.35912	1180.91870	1549.21045	40.15844	1244.39636	1292.45984	162.07336	1386.14722	1220.28406	160.42946	1190.31042	1206.29883	176.77779	1068.01709	1203.70825	218.97057	944.67310	1231.94092	255.63393	830.95544	1182.91626	228.88623	832.45319	1191.88342	256.51495	752.42627	1607.71118	173.09877	1366.08569	1676.61877	188.32724	1143.11621	1686.81824	211.24367	1032.19250	1687.01270	233.56523	896.74414	1648.36145	262.67001	802.43787	1695.86401	237.38538	796.93176	1684.77429	262.10269	726.95135	1317.80859	203.20363	939.60992	1553.42896	233.61850	947.26874	1386.95154	48.46769	961.76990	1533.76685	68.49486	979.14844	1263.08618	165.35667	636.54395	1272.48474	196.42259	459.48480	1292.95471	46.67879	334.37439	1349.50964	-98.84156	193.28217	1396.53674	-145.33739	196.69817	1353.32825	-26.11370	61.88936	1596.02539	191.50156	653.86603	1555.55408	212.08852	474.73599	1557.55396	177.36835	287.41440	1503.59143	161.85133	73.01109	1454.37378	116.37161	41.36113	1481.85840	303.72733	36.88264																		 
211	2.100	1398.04395	232.40067	1633.79846	1531.34814	230.10658	1631.20764	1398.15820	111.02379	1574.72620	1529.23169	113.15325	1572.22229	1451.90161	92.58138	1420.93445	1452.39673	59.71985	1108.52173	1445.60339	216.77156	1346.87427	1432.42590	257.55066	1181.26184	1550.09070	46.84861	1244.95679	1292.72583	167.82243	1386.53882	1220.83594	164.51231	1190.45483	1207.09412	179.99690	1067.97522	1204.18188	220.88280	944.16962	1232.42334	256.17044	829.88220	1183.48926	229.45354	831.94489	1192.16296	255.93718	751.51111	1607.94531	180.07072	1366.79089	1677.08923	197.11548	1144.11609	1687.41028	221.09315	1033.42065	1687.88525	244.34714	898.10254	1649.42761	273.81940	803.90656	1697.13281	248.89069	798.37775	1686.12402	274.01556	728.46777	1318.77356	210.06259	940.51843	1554.41064	240.06865	947.46021	1387.84094	54.83903	962.32257	1534.56165	75.03886	979.21545	1263.57703	175.75926	637.70575	1272.62854	209.88589	460.97525	1292.82019	62.19162	333.60541	1348.96899	-81.71767	190.43779	1395.71704	-128.82365	192.68402	1353.55566	-5.04885	61.68862	1596.06714	197.19272	653.64740	1555.76990	215.75755	474.48923	1557.62842	179.42915	287.46536	1503.61584	161.60789	73.26424	1454.36328	116.40859	41.68231	1481.77979	303.81284	36.80328																		 
212	2.110	1398.41394	239.33263	1634.02454	1531.58655	237.07718	1631.21313	1398.50647	117.82865	1575.35645	1529.59814	120.07617	1572.69592	1452.41919	98.78379	1421.38831	1453.25208	66.05140	1108.81323	1445.72021	223.05331	1347.23242	1432.83618	263.78162	1181.64648	1551.01196	53.61468	1245.50562	1293.02136	173.52029	1386.96509	1221.32361	168.57306	1190.62122	1207.76587	183.11485	1068.11475	1204.76904	222.84464	943.83289	1232.88794	256.80969	829.07361	1183.98950	229.96121	831.55890	1192.42236	255.42552	750.74603	1608.15259	187.03006	1367.51746	1677.56909	205.82785	1145.13440	1687.97192	230.80942	1034.73267	1688.87354	255.13362	899.61096	1650.49158	285.11026	805.49359	1698.30420	260.45529	799.92059	1687.39246	285.99515	730.17059	1319.83167	216.86456	941.43073	1555.36816	246.46051	947.51398	1388.48254	61.62436	962.71802	1535.40662	81.58017	979.23767	1264.17883	186.61250	638.58398	1273.06262	223.35687	462.55173	1292.88708	78.05898	332.53540	1348.52026	-63.90899	187.02034	1394.91882	-111.72616	187.62730	1353.75061	16.97283	61.21463	1595.80554	203.21185	653.33392	1555.96838	219.39005	474.29233	1557.72424	181.40298	287.49008	1503.58252	161.76262	73.50665	1454.29712	116.48033	42.01216	1481.77930	303.90262	36.75717																		 
213	2.120	1398.63196	246.23715	1634.23535	1531.80945	244.14171	1631.28833	1398.85510	124.46975	1576.01636	1529.92114	126.91388	1573.22339	1452.88464	105.12807	1421.78503	1454.05530	72.48910	1109.06116	1445.81848	229.31866	1347.60693	1433.17639	269.91122	1181.96155	1551.94434	60.15333	1246.10303	1293.25732	179.20506	1387.36365	1221.80139	172.59326	1190.81116	1208.36865	186.22058	1068.18323	1205.57678	224.70045	943.55322	1233.35913	257.53052	828.39923	1184.47986	230.68150	831.21918	1192.74243	255.01807	750.02075	1608.34375	193.84486	1368.23560	1678.02698	214.41383	1146.15686	1688.53906	240.38576	1036.01965	1689.68066	265.82187	901.14270	1651.47913	296.37384	807.15631	1699.42908	271.97867	801.51477	1688.50488	297.99722	731.85315	1320.82739	223.68323	942.28357	1556.39026	252.76555	947.52893	1389.02588	68.23220	963.23578	1536.09143	88.02740	979.33893	1264.60486	197.06218	639.89349	1273.86584	236.34224	464.12405	1292.98901	93.73088	331.29053	1348.09009	-45.73942	182.76883	1394.20105	-94.04375	181.55908	1353.88135	39.67253	60.35948	1598.42456	204.79744	654.52448	1556.15234	223.01762	474.09955	1557.81396	183.37144	287.56308	1503.56213	161.88806	73.73602	1454.25928	116.60865	42.39764	1481.76050	303.99927	36.66722																		 
214	2.130	1398.81262	253.06419	1634.39026	1532.08191	251.24884	1631.38391	1399.15576	131.07806	1576.61646	1530.20166	133.64853	1573.72534	1453.31738	111.34311	1422.14221	1454.90979	78.43710	1109.51416	1445.96851	235.55573	1347.97925	1433.52588	275.99731	1182.28259	1552.83667	66.77494	1246.61194	1293.52856	184.85095	1387.71692	1222.09326	176.61847	1190.97095	1208.84363	189.26360	1068.26355	1205.83142	226.52431	943.25995	1233.75916	258.55569	827.84723	1184.97852	231.45444	830.90997	1193.11938	254.75647	749.40674	1608.48657	200.60977	1368.91785	1678.46729	222.82303	1147.18225	1689.15076	249.77290	1037.33704	1690.43054	276.38678	902.65869	1652.43982	307.69482	808.92059	1700.40466	283.44495	803.13678	1689.78015	310.16513	733.81824	1321.72571	230.23987	942.92737	1557.23267	258.96378	947.52374	1389.49487	74.71000	963.80157	1536.68933	94.28478	979.36450	1265.00623	207.73766	641.11609	1274.89600	249.40639	465.89102	1293.36902	109.35015	329.61942	1347.67041	-27.11170	177.65103	1393.48291	-75.74709	174.69368	1353.64099	63.31114	59.17981	1599.12317	209.10909	654.39410	1556.36804	226.52722	473.94067	1557.81091	185.34056	287.57559	1503.61377	162.05392	73.94044	1454.11108	116.68430	42.77710	1481.77429	304.05481	36.61153																		 
215	2.140	1398.99426	259.77756	1634.47607	1532.04980	257.94498	1631.34229	1399.44116	137.59482	1577.17651	1530.47681	140.30841	1574.24048	1453.80322	117.50564	1422.42688	1455.74792	84.78500	1109.68481	1446.04468	241.71985	1348.25928	1433.87695	282.09604	1182.58643	1553.76172	73.44353	1247.07605	1293.71729	190.52119	1387.99048	1222.42004	180.66960	1191.12769	1209.23267	192.23811	1068.25525	1206.28601	228.56088	942.96832	1234.10791	259.83545	827.39044	1185.44409	232.07071	830.53119	1193.57922	254.91978	748.80774	1608.62561	207.29745	1369.57117	1678.92590	231.15428	1148.14197	1689.72461	259.13873	1038.59729	1691.21729	286.88892	904.21179	1653.28137	319.01160	810.66162	1701.26880	294.90369	804.73883	1690.51294	322.08691	735.50555	1322.64063	236.93909	943.64191	1558.04675	265.11057	947.47400	1389.81799	81.24027	964.13422	1537.23096	100.44980	979.47620	1265.48059	218.40039	642.32733	1276.03284	262.28403	467.33554	1293.83374	125.16098	327.85062	1347.26440	-7.52726	172.13075	1392.79065	-56.75961	167.07040	1353.21460	87.34090	57.72977	1598.51343	216.04997	653.58380	1556.65088	230.03911	473.74490	1557.93066	187.27768	287.67596	1503.38098	162.31544	74.24502	1454.00598	116.75859	43.22313	1481.79443	304.14886	36.53394																		 
216	2.150	1398.66687	266.54453	1634.58716	1532.18652	264.74429	1631.35632	1399.66077	144.09741	1577.70166	1530.66699	146.93317	1574.69739	1454.20935	123.74946	1422.59387	1456.58838	90.81458	1109.93213	1446.13599	247.88872	1348.54150	1434.04553	288.25558	1182.77173	1554.73218	79.84661	1247.50244	1293.90991	196.15590	1388.15576	1222.65063	184.85764	1191.27588	1209.50610	195.19116	1068.15967	1206.62122	230.79210	942.76031	1234.57605	260.34808	826.57440	1185.95374	232.76155	830.13062	1194.13647	254.64999	748.09546	1608.76465	214.01581	1370.18152	1679.39966	239.37360	1149.08911	1690.34680	268.25021	1039.82764	1691.90540	297.32440	905.70758	1653.88306	330.26355	812.28174	1702.00256	306.27631	806.32587	1691.32153	334.12717	737.36676	1323.51025	243.58565	944.28448	1558.82825	271.18799	947.41821	1390.06970	87.73100	964.50848	1537.65552	106.52190	979.51770	1266.03540	228.91985	643.32306	1277.49219	274.79114	469.13397	1294.33081	140.68848	325.79822	1346.90271	12.07551	166.30357	1392.17896	-37.15848	159.08951	1352.60010	111.78981	56.18522	1598.56702	221.05490	653.30792	1556.88330	233.50305	473.55679	1557.93274	189.23557	287.75238	1503.01929	162.65714	74.62057	1453.88257	116.85435	43.64408	1481.84656	304.19992	36.46059																		 
217	2.160	1398.69678	273.19806	1634.67529	1532.33228	271.60168	1631.45679	1399.77966	150.52345	1578.11255	1530.78271	153.46696	1575.10046	1454.58325	129.93117	1422.85571	1457.33350	96.90456	1110.11377	1446.22021	253.98016	1348.76770	1434.34326	294.34927	1182.96899	1555.64661	86.39022	1247.89954	1294.09546	201.78151	1388.24548	1222.84521	189.00877	1191.25806	1209.84900	198.38609	1068.11279	1206.96167	232.54509	942.33337	1234.87451	261.64731	826.07080	1186.42700	233.78627	829.68805	1194.74219	254.84624	747.38702	1608.87280	220.62479	1370.70276	1679.88086	247.47987	1149.98792	1690.92908	277.29138	1040.99792	1692.49939	307.68774	907.18805	1654.50867	341.52332	814.06647	1702.57764	317.64063	807.91614	1692.07239	346.37119	739.34808	1324.28821	250.08025	944.85602	1559.48499	277.15717	947.37152	1390.25317	93.95436	964.76617	1537.98621	112.48400	979.62299	1266.67993	239.32567	644.62628	1279.05994	286.88739	470.64404	1294.86768	156.44257	323.51511	1346.50098	32.28097	159.99446	1391.52307	-17.02051	150.73149	1351.99182	136.46844	54.41558	1598.80322	225.65070	653.11487	1557.15283	236.90514	473.34436	1557.96484	191.17410	287.81030	1502.93115	162.84496	74.90140	1453.70093	117.17778	44.18198	1481.85474	304.29449	36.38905																		 
